<svg aria-hidden="true" style="width:0;height:0;position:absolute;overflow:hidden" xmlns="http://www.w3.org/2000/svg"><defs><symbol id="icon-arrow-on-buttons" viewBox="0 0 12 12" fill="none"><path d="m4 2 4.948 4L4 10" stroke="currentColor" stroke-width="2" stroke-linecap="round" stroke-linejoin="round"/></symbol><symbol id="icon-hero-arrow-foc" viewBox="0 0 69 32"><path d="M68.08 17.413c.361-.362.585-.861.585-1.413s-.224-1.052-.585-1.413L55.353 1.858a2.001 2.001 0 0 0-2.83 2.83l11.316 11.313-11.315 11.313a2.001 2.001 0 0 0 2.83 2.83l12.728-12.728zM0 18h66.667v-4H0v4z"/></symbol><symbol id="icon-hero-arrow-hov" viewBox="0 0 102 32"><path d="M101.414 17.414c.362-.362.586-.862.586-1.414s-.224-1.052-.586-1.414L88.686 1.858a2 2 0 1 0-2.829 2.827l.001.001L97.172 16 85.858 27.314a2 2 0 0 0 2.829 2.827l-.001.001 12.728-12.728zM0 18h100v-4H0v4z"/></symbol><symbol id="icon-hero-arrow-def" viewBox="0 0 82 32"><path d="M81.414 17.414c.362-.362.586-.862.586-1.414s-.224-1.052-.586-1.414L68.686 1.858a2 2 0 1 0-2.829 2.827l.001.001L77.172 16 65.858 27.314a2 2 0 0 0 2.829 2.827l-.001.001 12.728-12.728zM0 18h80v-4H0v4z"/></symbol><symbol id="icon-close-modal" viewBox="0 0 32 32"><path d="m17.253 16 7.37-7.37a.89.89 0 0 0-1.256-1.252l.001-.001L16 14.747 8.63 7.369a.893.893 0 0 0-1.262 1.262l-.001-.001L14.745 16l-7.376 7.368a.89.89 0 1 0 1.252 1.256l.001-.001 7.376-7.37 7.37 7.37a.89.89 0 0 0 1.254-1.256l.001.001L17.253 16z"/></symbol><symbol id="icon-scroll-up" viewBox="0 0 384 512"><path d="M214.6 41.4c-12.5-12.5-32.8-12.5-45.3 0l-160 160c-12.5 12.5-12.5 32.8 0 45.3s32.8 12.5 45.3 0L160 141.2V448c0 17.7 14.3 32 32 32s32-14.3 32-32V141.2l105.4 105.4c12.5 12.5 32.8 12.5 45.3 0s12.5-32.8 0-45.3l-160-160z"/></symbol><symbol id="icon-arrow-def" viewBox="0 0 41 16" fill="none"><path d="M40.707 8.707a1 1 0 0 0 0-1.414L34.343.929a1 1 0 1 0-1.414 1.414L38.586 8l-5.657 5.657a1 1 0 0 0 1.414 1.414l6.364-6.364ZM0 9h40V7H0v2Z" fill="#131313"/></symbol><symbol id="icon-arrow-hov" viewBox="0 0 51 16" fill="none"><path d="M50.707 8.707a1 1 0 0 0 0-1.414L44.343.929a1 1 0 1 0-1.414 1.414L48.586 8l-5.657 5.657a1 1 0 0 0 1.414 1.414l6.364-6.364ZM0 9h50V7H0v2Z" fill="#131313"/></symbol><symbol id="icon-arrow-foc" viewBox="0 0 52 24" fill="none"><path d="M51.06 13.06a1.5 1.5 0 0 0 0-2.12l-9.545-9.547a1.5 1.5 0 1 0-2.122 2.122L47.88 12l-8.486 8.485a1.5 1.5 0 1 0 2.122 2.122l9.546-9.546ZM0 13.5h50v-3H0v3Z" fill="#131313"/></symbol><symbol id="icon-facebook" viewBox="0 0 31 32"><path fill="#f8d24e" style="fill:var(--color1,#f8d24e)" d="M15.515 31.948c8.569 0 15.515-6.948 15.515-15.519S24.084.91 15.515.91 0 7.858 0 16.429s6.946 15.519 15.515 15.519z"/><path d="M19.826 16.412h-2.531v9.329H13.46v-9.329h-1.824v-3.279h1.824v-2.122c0-1.517.716-3.893 3.869-3.893l2.841.012v3.183h-2.061c-.338 0-.813.17-.813.894v1.93h2.866l-.335 3.276z"/></symbol><symbol id="icon-github" viewBox="0 0 31 32"><path fill="#f8d24e" style="fill:var(--color1,#f8d24e)" d="M31.03 16.43c0 8.571-6.946 15.519-15.515 15.519S0 25.001 0 16.43 6.946.911 15.515.911 31.03 7.859 31.03 16.43z"/><path d="M15.515 7.301c-5.013 0-9.127 4.115-9.127 9.129 0 4.279 3.002 8.165 6.988 9.129v-3.02a2.22 2.22 0 0 1-1.16-.03c-.539-.159-.978-.519-1.303-1.067-.207-.35-.575-.729-.958-.701l-.094-1.066c.829-.071 1.546.505 1.972 1.221.189.318.407.505.686.587.27.079.56.041.898-.078.085-.677.395-.93.629-1.286-2.377-.355-3.325-1.616-3.701-2.612-.498-1.322-.231-2.974.65-4.017.017-.02.048-.074.036-.111-.404-1.221.088-2.23.106-2.338.466.138.542-.139 2.025.763l.256.154c.107.064.073.027.181.019a7.735 7.735 0 0 1 1.915-.269 7.768 7.768 0 0 1 1.942.276l.083.008c-.007-.001.023-.005.073-.035 1.853-1.123 1.786-.756 2.283-.917.018.107.504 1.133.104 2.339-.054.166 1.606 1.687.686 4.128-.376.996-1.323 2.257-3.7 2.612.305.465.671.712.669 1.67v3.77c3.986-.963 6.988-4.85 6.988-9.129 0-5.014-4.114-9.129-9.126-9.129z"/></symbol><symbol id="icon-telegram" viewBox="0 0 32 32"><path fill="#f8d24e" style="fill:var(--color1,#f8d24e)" d="M31.259 16.43c0 8.571-6.946 15.519-15.515 15.519S.229 25.001.229 16.43 7.175.911 15.744.911 31.259 7.859 31.259 16.43z"/><path d="m12.705 18.734-.308 4.044c.441 0 .631-.177.86-.389l2.066-1.843 4.281 2.926c.785.409 1.338.193 1.55-.674l2.811-12.292c.249-1.083-.42-1.507-1.185-1.241L6.264 15.168c-1.127.408-1.11.995-.192 1.261l4.223 1.226 9.808-5.729c.462-.285.881-.127.536.158l-7.934 6.65z"/></symbol></defs></svg>