<?xml version="1.0" standalone="no"?>
<!DOCTYPE svg PUBLIC "-//W3C//DTD SVG 20010904//EN"
 "http://www.w3.org/TR/2001/REC-SVG-20010904/DTD/svg10.dtd">
<svg version="1.0" xmlns="http://www.w3.org/2000/svg"
 width="415.000000pt" height="415.000000pt" viewBox="0 0 415.000000 415.000000"
 preserveAspectRatio="xMidYMid meet">
<metadata>
Created by potrace 1.14, written by Peter Selinger 2001-2017
</metadata>
<g transform="translate(0.000000,415.000000) scale(0.100000,-0.100000)"
fill="#000000" stroke="none">
<path d="M2565 4093 c-16 -2 -46 -10 -65 -17 -65 -26 -75 -29 -96 -27 -11 1
-28 -7 -39 -19 -10 -11 -28 -20 -39 -20 -12 0 -37 -14 -55 -31 -18 -16 -36
-28 -39 -24 -3 3 -13 -2 -23 -11 -9 -8 -24 -16 -32 -18 -23 -3 -67 -35 -67
-49 0 -13 -52 -57 -67 -57 -4 0 -19 -16 -32 -35 -13 -19 -29 -35 -35 -35 -7 0
-17 -15 -24 -32 -15 -42 -88 -118 -113 -118 -18 0 -34 -42 -69 -177 -6 -24
-14 -42 -18 -42 -23 4 -32 -4 -32 -26 0 -25 -2 -25 -47 -19 -27 3 -62 17 -80
30 -32 24 -53 31 -53 16 0 -10 -68 -47 -90 -48 -8 -1 -38 -6 -65 -12 -28 -6
-63 -14 -78 -17 -18 -4 -27 -11 -24 -19 11 -29 -8 -38 -46 -22 -34 14 -36 14
-42 -6 -4 -11 -19 -24 -33 -30 -23 -8 -112 -114 -112 -133 0 -11 -63 -70 -72
-67 -4 1 -8 -2 -8 -8 0 -5 -8 -10 -17 -10 -11 0 -25 -16 -35 -38 -10 -20 -30
-50 -45 -67 -16 -16 -29 -40 -31 -53 -2 -12 -10 -35 -18 -50 -7 -15 -14 -39
-14 -53 0 -31 -14 -76 -44 -144 -13 -27 -31 -78 -42 -113 -20 -68 -18 -67 -89
-47 -17 5 -23 -2 -38 -48 -19 -59 -21 -78 -9 -76 20 3 42 -2 40 -10 -4 -13 45
-90 58 -91 5 0 25 -21 43 -46 17 -25 45 -51 62 -57 21 -8 29 -18 29 -35 0 -13
4 -21 9 -18 5 3 28 -5 52 -17 24 -13 52 -21 62 -19 22 5 22 -4 -8 -158 -3 -14
-10 -52 -15 -85 -6 -33 -24 -123 -40 -200 -16 -77 -31 -151 -34 -165 -8 -42
-13 -63 -24 -105 -6 -22 -13 -51 -16 -65 -3 -14 -8 -36 -11 -50 -5 -21 -26
-126 -69 -355 -10 -49 -34 -206 -41 -260 -6 -54 -20 -115 -35 -155 -10 -26
-14 -50 -25 -135 -13 -105 -16 -120 -35 -196 -11 -42 -20 -82 -20 -88 0 -8
197 -11 673 -11 l673 0 20 22 c11 13 42 50 69 83 79 94 89 106 100 119 6 6 44
51 85 101 41 49 85 101 97 115 11 14 49 59 83 100 34 41 71 86 83 100 33 40
210 240 259 294 l45 49 99 1 c90 1 105 4 166 34 36 18 81 35 100 38 18 4 48
18 66 31 18 13 57 35 86 48 31 14 57 32 60 43 4 11 24 32 46 47 22 15 42 36
45 46 4 10 13 25 20 33 33 33 111 234 122 316 3 19 9 42 13 50 8 16 6 207 -3
275 -4 23 -20 80 -37 127 -16 48 -30 92 -30 98 0 7 -10 26 -22 43 -13 18 -32
52 -44 77 -11 25 -28 51 -37 59 -10 7 -17 19 -17 27 0 7 -7 20 -16 28 -9 9
-17 23 -18 30 -1 8 -8 21 -15 30 -11 13 -11 19 -1 31 7 8 16 13 20 10 4 -2 12
7 18 20 7 14 27 33 46 41 62 30 71 81 20 108 -67 36 -63 31 -50 88 7 29 20 67
29 85 9 18 17 41 17 51 0 10 9 29 20 42 11 13 20 37 21 54 0 17 3 51 7 76 14
113 -16 330 -57 403 -17 30 -19 42 -11 58 9 16 5 30 -19 73 -17 29 -28 55 -25
59 5 5 -21 33 -189 207 -48 49 -188 148 -220 154 -6 2 -19 5 -27 8 -33 11
-112 28 -132 28 -12 0 -41 9 -64 21 -34 16 -50 18 -76 11 -18 -5 -42 -6 -53
-3 -11 4 -33 5 -50 4z"/>
</g>
</svg>
